<svg width="44" height="44" viewBox="0 0 44 44" fill="none" xmlns="http://www.w3.org/2000/svg">
<rect width="44" height="44" rx="8" fill="#F5746B" fill-opacity="0.2"/>
<path d="M11.8241 20.0865C11.8121 19.9484 11.8289 19.8094 11.8735 19.6782C11.9181 19.5469 11.9895 19.4264 12.0832 19.3243C12.1768 19.2221 12.2907 19.1405 12.4175 19.0847C12.5444 19.0289 12.6815 19 12.8201 19L14.7296 19C14.9948 19 15.2491 19.1054 15.4367 19.2929C15.6242 19.4804 15.7296 19.7348 15.7296 20L15.7296 29.5C15.7296 29.7652 15.6242 30.0196 15.4367 30.2071C15.2491 30.3946 14.9948 30.5 14.7296 30.5L13.6466 30.5C13.3963 30.5001 13.1551 30.4063 12.9706 30.2371C12.7861 30.068 12.6717 29.8358 12.6501 29.5865L11.8241 20.0865ZM18.7296 19.6875C18.7296 19.2695 18.9896 18.8955 19.3671 18.7175C20.1916 18.3285 21.5961 17.547 22.2296 16.4905C23.0461 15.1285 23.2001 12.668 23.2251 12.1045C23.2286 12.0255 23.2266 11.9465 23.2371 11.8685C23.3726 10.892 25.2571 12.0325 25.9796 13.2385C26.3721 13.8925 26.4221 14.752 26.3811 15.4235C26.3366 16.1415 26.1261 16.835 25.9196 17.524L25.4796 18.9925L30.9081 18.9925C31.0626 18.9925 31.215 19.0283 31.3533 19.0971C31.4917 19.1658 31.6122 19.2658 31.7054 19.3889C31.7987 19.5121 31.8621 19.6553 31.8908 19.8071C31.9194 19.9589 31.9125 20.1153 31.8706 20.264L29.1856 29.772C29.1263 29.9817 29.0001 30.1663 28.8263 30.2977C28.6525 30.4291 28.4405 30.5002 28.2226 30.5L19.7296 30.5C19.4643 30.5 19.21 30.3946 19.0225 30.2071C18.8349 30.0196 18.7296 29.7652 18.7296 29.5L18.7296 19.6875Z" fill="#F5746B"/>
</svg>
