<svg width="19" height="18" viewBox="0 0 19 18" fill="none" xmlns="http://www.w3.org/2000/svg">
<path d="M5.82054 0C5.98763 0 6.14787 0.0663748 6.26602 0.184523C6.38417 0.302671 6.45054 0.462914 6.45054 0.63V1.8081H13.2158V0.6381C13.2158 0.471014 13.2822 0.310771 13.4004 0.192623C13.5185 0.0744748 13.6788 0.0081 13.8458 0.0081C14.0129 0.0081 14.1732 0.0744748 14.2913 0.192623C14.4095 0.310771 14.4758 0.471014 14.4758 0.6381V1.8081H16.9148C17.3921 1.8081 17.8498 1.99762 18.1873 2.33499C18.5249 2.67236 18.7146 3.12997 18.7148 3.6072V16.2009C18.7146 16.6781 18.5249 17.1357 18.1873 17.4731C17.8498 17.8105 17.3921 18 16.9148 18H2.51484C2.03761 18 1.57991 17.8105 1.24237 17.4731C0.90483 17.1357 0.715082 16.6781 0.714844 16.2009V3.6072C0.715082 3.12997 0.90483 2.67236 1.24237 2.33499C1.57991 1.99762 2.03761 1.8081 2.51484 1.8081H5.19054V0.6291C5.19078 0.46217 5.25726 0.302158 5.37538 0.184204C5.49351 0.0662511 5.65361 -1.70337e-07 5.82054 0ZM1.97484 6.9678V16.2009C1.97484 16.2718 1.98881 16.342 2.01595 16.4075C2.04309 16.4731 2.08286 16.5326 2.13301 16.5827C2.18315 16.6329 2.24268 16.6727 2.30819 16.6998C2.37371 16.7269 2.44393 16.7409 2.51484 16.7409H16.9148C16.9858 16.7409 17.056 16.7269 17.1215 16.6998C17.187 16.6727 17.2465 16.6329 17.2967 16.5827C17.3468 16.5326 17.3866 16.4731 17.4137 16.4075C17.4409 16.342 17.4548 16.2718 17.4548 16.2009V6.9804L1.97484 6.9678ZM5.19054 3.0672H2.51484C2.44393 3.0672 2.37371 3.08117 2.30819 3.1083C2.24268 3.13544 2.18315 3.17522 2.13301 3.22536C2.08286 3.27551 2.04309 3.33504 2.01595 3.40055C1.98881 3.46607 1.97484 3.53629 1.97484 3.6072V5.7087L17.4548 5.7213V3.6072C17.4548 3.53629 17.4409 3.46607 17.4137 3.40055C17.3866 3.33504 17.3468 3.27551 17.2967 3.22536C17.2465 3.17522 17.187 3.13544 17.1215 3.1083C17.056 3.08117 16.9858 3.0672 16.9148 3.0672H14.4758V3.9033C14.4758 4.07039 14.4095 4.23063 14.2913 4.34878C14.1732 4.46693 14.0129 4.5333 13.8458 4.5333C13.6788 4.5333 13.5185 4.46693 13.4004 4.34878C13.2822 4.23063 13.2158 4.07039 13.2158 3.9033V3.0672H6.45054V3.8952C6.45054 4.06229 6.38417 4.22253 6.26602 4.34068C6.14787 4.45883 5.98763 4.5252 5.82054 4.5252C5.65346 4.5252 5.49321 4.45883 5.37507 4.34068C5.25692 4.22253 5.19054 4.06229 5.19054 3.8952V3.0672Z" fill="#767676"/>
</svg>
