<svg width="18" height="26" viewBox="0 0 18 26" fill="none" xmlns="http://www.w3.org/2000/svg">
<rect y="5" width="18" height="18" rx="9" fill="#047B6C"/>
<path d="M9.36914 15.4863H8.0625C8.06641 15.123 8.09766 14.8184 8.15625 14.5723C8.21484 14.3223 8.3125 14.0957 8.44922 13.8926C8.58984 13.6895 8.77539 13.4746 9.00586 13.248C9.18555 13.0762 9.34766 12.9141 9.49219 12.7617C9.63672 12.6055 9.75195 12.4414 9.83789 12.2695C9.92383 12.0938 9.9668 11.8926 9.9668 11.666C9.9668 11.4199 9.92578 11.2109 9.84375 11.0391C9.76172 10.8672 9.64062 10.7363 9.48047 10.6465C9.32422 10.5566 9.12891 10.5117 8.89453 10.5117C8.69922 10.5117 8.51562 10.5508 8.34375 10.6289C8.17188 10.7031 8.0332 10.8203 7.92773 10.9805C7.82227 11.1367 7.76562 11.3438 7.75781 11.6016H6.3457C6.35352 11.1094 6.4707 10.6953 6.69727 10.3594C6.92383 10.0234 7.22852 9.77148 7.61133 9.60352C7.99414 9.43555 8.42188 9.35156 8.89453 9.35156C9.41797 9.35156 9.86523 9.44141 10.2363 9.62109C10.6074 9.79688 10.8906 10.0547 11.0859 10.3945C11.2852 10.7305 11.3848 11.1367 11.3848 11.6133C11.3848 11.957 11.3164 12.2695 11.1797 12.5508C11.043 12.8281 10.8652 13.0879 10.6465 13.3301C10.4277 13.5684 10.1914 13.8066 9.9375 14.0449C9.71875 14.2441 9.57031 14.4609 9.49219 14.6953C9.41406 14.9258 9.37305 15.1895 9.36914 15.4863ZM7.94531 17.3145C7.94531 17.1035 8.01758 16.9258 8.16211 16.7812C8.30664 16.6328 8.50391 16.5586 8.75391 16.5586C9.00391 16.5586 9.20117 16.6328 9.3457 16.7812C9.49023 16.9258 9.5625 17.1035 9.5625 17.3145C9.5625 17.5254 9.49023 17.7051 9.3457 17.8535C9.20117 17.998 9.00391 18.0703 8.75391 18.0703C8.50391 18.0703 8.30664 17.998 8.16211 17.8535C8.01758 17.7051 7.94531 17.5254 7.94531 17.3145Z" fill="white"/>
</svg>
