<svg width="232" height="54" viewBox="0 0 232 54" fill="none" xmlns="http://www.w3.org/2000/svg">
<rect y="6" width="232" height="30" rx="4" fill="url(#paint0_linear_0_1)"/>
<rect x="206" y="10" width="22" height="22" rx="4" fill="#FDE3E1"/>
<ellipse cx="213.5" cy="19.4395" rx="1" ry="0.999999" fill="#F5746B"/>
<circle cx="220.5" cy="19.3594" r="1" fill="#F5746B"/>
<path d="M217 24.8594C214.999 24.8594 214.015 23.5038 213.66 22.3425C213.499 21.8144 213.948 21.3594 214.5 21.3594H219.5C220.052 21.3594 220.501 21.8144 220.34 22.3425C219.985 23.5038 219.001 24.8594 217 24.8594Z" fill="#F5746B"/>
<rect x="105" y="10" width="22" height="22" rx="4" fill="#FFF2DD"/>
<circle cx="112.5" cy="19.4375" r="1" fill="#FFB82F"/>
<circle cx="119.5" cy="19.3594" r="1" fill="#FFB82F"/>
<path fill-rule="evenodd" clip-rule="evenodd" d="M113.5 22.1094L118.5 22.1094C118.914 22.1094 119.25 22.4452 119.25 22.8594C119.25 23.2736 118.914 23.6094 118.5 23.6094L113.5 23.6094C113.086 23.6094 112.75 23.2736 112.75 22.8594C112.75 22.4452 113.086 22.1094 113.5 22.1094Z" fill="#FFB82F"/>
<rect x="4" y="10" width="22" height="22" rx="4" fill="#CDDDEA"/>
<path fill-rule="evenodd" clip-rule="evenodd" d="M19.0303 18.829C19.3232 19.1219 19.3232 19.5968 19.0303 19.8897L18.5303 20.3897C18.2374 20.6826 17.7626 20.6826 17.4697 20.3897C17.1768 20.0968 17.1768 19.6219 17.4697 19.329L17.9697 18.829C18.2626 18.5362 18.7374 18.5362 19.0303 18.829Z" fill="#065398"/>
<path fill-rule="evenodd" clip-rule="evenodd" d="M10.9697 18.829C11.2626 18.5362 11.7374 18.5362 12.0303 18.829L12.5303 19.329C12.8232 19.6219 12.8232 20.0968 12.5303 20.3897C12.2374 20.6826 11.7626 20.6826 11.4697 20.3897L10.9697 19.8897C10.6768 19.5968 10.6768 19.1219 10.9697 18.829Z" fill="#065398"/>
<path fill-rule="evenodd" clip-rule="evenodd" d="M17.5 24.625C17.0858 24.625 16.75 24.2892 16.75 23.875C16.75 23.793 16.6627 23.4734 16.3447 23.1553C16.056 22.8667 15.6172 22.625 15 22.625C14.3828 22.625 13.944 22.8667 13.6553 23.1553C13.3373 23.4734 13.25 23.793 13.25 23.875C13.25 24.2892 12.9142 24.625 12.5 24.625C12.0858 24.625 11.75 24.2892 11.75 23.875C11.75 23.2903 12.0794 22.61 12.5947 22.0947C13.1393 21.55 13.9506 21.125 15 21.125C16.0494 21.125 16.8607 21.55 17.4053 22.0947C17.9206 22.61 18.25 23.2903 18.25 23.875C18.25 24.2892 17.9142 24.625 17.5 24.625Z" fill="#065398"/>
<path d="M12.5957 48.249V49.2881H9.25977V48.249H12.5957ZM15.542 47.4014H16.4443C16.8864 47.4014 17.251 47.3285 17.5381 47.1826C17.8298 47.0322 18.0462 46.8294 18.1875 46.5742C18.3333 46.3145 18.4062 46.0228 18.4062 45.6992C18.4062 45.3164 18.3424 44.9951 18.2148 44.7354C18.0872 44.4756 17.8958 44.2796 17.6406 44.1475C17.3854 44.0153 17.0618 43.9492 16.6699 43.9492C16.3145 43.9492 16 44.0199 15.7266 44.1611C15.4577 44.2979 15.2458 44.4938 15.0908 44.749C14.9404 45.0042 14.8652 45.305 14.8652 45.6514H13.6006C13.6006 45.1455 13.7282 44.6852 13.9834 44.2705C14.2386 43.8558 14.5964 43.5254 15.0566 43.2793C15.5215 43.0332 16.0592 42.9102 16.6699 42.9102C17.2715 42.9102 17.7979 43.0173 18.249 43.2314C18.7002 43.4411 19.0511 43.7555 19.3018 44.1748C19.5524 44.5895 19.6777 45.1068 19.6777 45.7266C19.6777 45.9772 19.6185 46.2461 19.5 46.5332C19.3861 46.8158 19.2061 47.0801 18.96 47.3262C18.7184 47.5723 18.404 47.7751 18.0166 47.9346C17.6292 48.0895 17.1644 48.167 16.6221 48.167H15.542V47.4014ZM15.542 48.4404V47.6816H16.6221C17.2555 47.6816 17.7796 47.7568 18.1943 47.9072C18.609 48.0576 18.9349 48.2581 19.1719 48.5088C19.4134 48.7594 19.582 49.0352 19.6777 49.3359C19.778 49.6322 19.8281 49.9284 19.8281 50.2246C19.8281 50.6895 19.7484 51.1019 19.5889 51.4619C19.4339 51.8219 19.2129 52.1273 18.9258 52.3779C18.6432 52.6286 18.3105 52.8177 17.9277 52.9453C17.5449 53.0729 17.1279 53.1367 16.6768 53.1367C16.2438 53.1367 15.8359 53.0752 15.4531 52.9521C15.0749 52.8291 14.7399 52.6514 14.4482 52.4189C14.1566 52.182 13.9287 51.8926 13.7646 51.5508C13.6006 51.2044 13.5186 50.8102 13.5186 50.3682H14.7832C14.7832 50.7145 14.8584 51.0176 15.0088 51.2773C15.1637 51.5371 15.3825 51.7399 15.665 51.8857C15.9521 52.027 16.2894 52.0977 16.6768 52.0977C17.0641 52.0977 17.3968 52.0316 17.6748 51.8994C17.9574 51.7627 18.1738 51.5576 18.3242 51.2842C18.4792 51.0107 18.5566 50.6667 18.5566 50.252C18.5566 49.8372 18.4701 49.4977 18.2969 49.2334C18.1237 48.9645 17.8776 48.7663 17.5586 48.6387C17.2441 48.5065 16.8727 48.4404 16.4443 48.4404H15.542Z" fill="#767676"/>
<path d="M119.138 47.2305V48.748C119.138 49.5638 119.065 50.252 118.919 50.8125C118.773 51.373 118.563 51.8242 118.29 52.166C118.017 52.5078 117.686 52.7562 117.299 52.9111C116.916 53.0615 116.483 53.1367 116 53.1367C115.617 53.1367 115.264 53.0889 114.94 52.9932C114.617 52.8975 114.325 52.7448 114.065 52.5352C113.81 52.321 113.591 52.043 113.409 51.7012C113.227 51.3594 113.088 50.9447 112.992 50.457C112.896 49.9694 112.849 49.3997 112.849 48.748V47.2305C112.849 46.4147 112.922 45.7311 113.067 45.1797C113.218 44.6283 113.43 44.1862 113.703 43.8535C113.977 43.5163 114.305 43.2747 114.688 43.1289C115.075 42.9831 115.508 42.9102 115.986 42.9102C116.374 42.9102 116.729 42.958 117.053 43.0537C117.381 43.1449 117.673 43.293 117.928 43.498C118.183 43.6986 118.399 43.9674 118.577 44.3047C118.759 44.6374 118.898 45.0452 118.994 45.5283C119.09 46.0114 119.138 46.5788 119.138 47.2305ZM117.866 48.9531V47.0186C117.866 46.5719 117.839 46.18 117.784 45.8428C117.734 45.501 117.659 45.2093 117.559 44.9678C117.458 44.7262 117.331 44.5303 117.176 44.3799C117.025 44.2295 116.85 44.1201 116.649 44.0518C116.453 43.9788 116.232 43.9424 115.986 43.9424C115.686 43.9424 115.419 43.9993 115.187 44.1133C114.954 44.2227 114.758 44.3981 114.599 44.6396C114.444 44.8812 114.325 45.1979 114.243 45.5898C114.161 45.9818 114.12 46.458 114.12 47.0186V48.9531C114.12 49.3997 114.145 49.7939 114.195 50.1357C114.25 50.4775 114.33 50.7738 114.435 51.0244C114.539 51.2705 114.667 51.4733 114.817 51.6328C114.968 51.7923 115.141 51.9108 115.337 51.9883C115.537 52.0612 115.758 52.0977 116 52.0977C116.31 52.0977 116.581 52.0384 116.813 51.9199C117.046 51.8014 117.24 51.6169 117.395 51.3662C117.554 51.111 117.673 50.7852 117.75 50.3887C117.827 49.9876 117.866 49.5091 117.866 48.9531Z" fill="#767676"/>
<path d="M215.735 47.4014H216.638C217.08 47.4014 217.444 47.3285 217.731 47.1826C218.023 47.0322 218.24 46.8294 218.381 46.5742C218.527 46.3145 218.6 46.0228 218.6 45.6992C218.6 45.3164 218.536 44.9951 218.408 44.7354C218.281 44.4756 218.089 44.2796 217.834 44.1475C217.579 44.0153 217.255 43.9492 216.863 43.9492C216.508 43.9492 216.193 44.0199 215.92 44.1611C215.651 44.2979 215.439 44.4938 215.284 44.749C215.134 45.0042 215.059 45.305 215.059 45.6514H213.794C213.794 45.1455 213.922 44.6852 214.177 44.2705C214.432 43.8558 214.79 43.5254 215.25 43.2793C215.715 43.0332 216.253 42.9102 216.863 42.9102C217.465 42.9102 217.991 43.0173 218.442 43.2314C218.894 43.4411 219.244 43.7555 219.495 44.1748C219.746 44.5895 219.871 45.1068 219.871 45.7266C219.871 45.9772 219.812 46.2461 219.693 46.5332C219.579 46.8158 219.399 47.0801 219.153 47.3262C218.912 47.5723 218.597 47.7751 218.21 47.9346C217.823 48.0895 217.358 48.167 216.815 48.167H215.735V47.4014ZM215.735 48.4404V47.6816H216.815C217.449 47.6816 217.973 47.7568 218.388 47.9072C218.802 48.0576 219.128 48.2581 219.365 48.5088C219.607 48.7594 219.775 49.0352 219.871 49.3359C219.971 49.6322 220.021 49.9284 220.021 50.2246C220.021 50.6895 219.942 51.1019 219.782 51.4619C219.627 51.8219 219.406 52.1273 219.119 52.3779C218.837 52.6286 218.504 52.8177 218.121 52.9453C217.738 53.0729 217.321 53.1367 216.87 53.1367C216.437 53.1367 216.029 53.0752 215.646 52.9521C215.268 52.8291 214.933 52.6514 214.642 52.4189C214.35 52.182 214.122 51.8926 213.958 51.5508C213.794 51.2044 213.712 50.8102 213.712 50.3682H214.977C214.977 50.7145 215.052 51.0176 215.202 51.2773C215.357 51.5371 215.576 51.7399 215.858 51.8857C216.146 52.027 216.483 52.0977 216.87 52.0977C217.257 52.0977 217.59 52.0316 217.868 51.8994C218.151 51.7627 218.367 51.5576 218.518 51.2842C218.673 51.0107 218.75 50.6667 218.75 50.252C218.75 49.8372 218.663 49.4977 218.49 49.2334C218.317 48.9645 218.071 48.7663 217.752 48.6387C217.438 48.5065 217.066 48.4404 216.638 48.4404H215.735Z" fill="#767676"/>
<defs>
<linearGradient id="paint0_linear_0_1" x1="4.4901e-07" y1="36" x2="232" y2="36" gradientUnits="userSpaceOnUse">
<stop stop-color="#85B8E2"/>
<stop offset="0.505208" stop-color="#FFDFAB"/>
<stop offset="1" stop-color="#FFBDB8"/>
</linearGradient>
</defs>
</svg>
