<svg width="13" height="13" viewBox="0 0 13 13" fill="none" xmlns="http://www.w3.org/2000/svg">
<path d="M12.9022 0.663658C12.8199 0.46507 12.6899 0.297271 12.5274 0.179784C12.3649 0.0622975 12.1766 -4.8405e-05 11.9843 2.81974e-08H1.01428C0.620683 2.81974e-08 0.265174 0.258267 0.0975771 0.663658C-0.0725594 1.06905 -0.0192337 1.54873 0.249937 1.89579L4.87409 8.38351V12.0718C4.87409 12.4229 5.04677 12.745 5.32356 12.9017C5.59781 13.0584 5.92792 13.0265 6.17424 12.8147L7.79942 11.4218C8.00511 11.2477 8.12446 10.972 8.12446 10.6789V8.38351L12.7704 1.89579C12.8922 1.72573 12.9692 1.51966 12.9925 1.30154C13.0158 1.08343 12.9845 0.862226 12.9021 0.663658H12.9022Z" fill="#047B6C"/>
</svg>
