<svg width="44" height="45" viewBox="0 0 44 45" fill="none" xmlns="http://www.w3.org/2000/svg">
<rect y="0.5" width="44" height="44" rx="8" fill="#065398"/>
<path fill-rule="evenodd" clip-rule="evenodd" d="M22 37.7812C30.2843 37.7812 37 31.0655 37 22.7812C37 14.497 30.2843 7.78125 22 7.78125C13.7157 7.78125 7 14.497 7 22.7812C7 31.0655 13.7157 37.7812 22 37.7812ZM30.0607 20.5611C30.6464 19.9754 30.6464 19.0256 30.0607 18.4398C29.4749 17.854 28.5251 17.854 27.9393 18.4398L26.9393 19.4398C26.3536 20.0256 26.3536 20.9754 26.9393 21.5611C27.5251 22.1469 28.4749 22.1469 29.0607 21.5611L30.0607 20.5611ZM13.9393 18.4398C14.5251 17.854 15.4749 17.854 16.0607 18.4398L17.0607 19.4398C17.6464 20.0256 17.6464 20.9754 17.0607 21.5611C16.4749 22.1469 15.5251 22.1469 14.9393 21.5611L13.9393 20.5611C13.3536 19.9754 13.3536 19.0256 13.9393 18.4398ZM25.5 28.5317C25.5 29.3602 26.1716 30.0317 27 30.0317C27.8284 30.0317 28.5 29.3602 28.5 28.5317C28.5 27.3623 27.8412 26.0016 26.8107 24.9711C25.7213 23.8817 24.0989 23.0317 22 23.0317C19.9011 23.0317 18.2787 23.8817 17.1893 24.9711C16.1588 26.0016 15.5 27.3623 15.5 28.5317C15.5 29.3602 16.1716 30.0317 17 30.0317C17.8284 30.0317 18.5 29.3602 18.5 28.5317C18.5 28.3678 18.6746 27.7285 19.3107 27.0924C19.888 26.5151 20.7656 26.0317 22 26.0317C23.2344 26.0317 24.112 26.5151 24.6893 27.0924C25.3254 27.7285 25.5 28.3678 25.5 28.5317Z" fill="white"/>
</svg>
