<svg width="44" height="45" viewBox="0 0 44 45" fill="none" xmlns="http://www.w3.org/2000/svg">
<path d="M0 8.5C0 4.08172 3.58172 0.5 8 0.5H36C40.4183 0.5 44 4.08172 44 8.5V36.5C44 40.9183 40.4183 44.5 36 44.5H8C3.58172 44.5 0 40.9183 0 36.5V8.5Z" fill="#F5746B"/>
<path fill-rule="evenodd" clip-rule="evenodd" d="M22 37.7812C30.2843 37.7812 37 31.0655 37 22.7812C37 14.497 30.2843 7.78125 22 7.78125C13.7157 7.78125 7 14.497 7 22.7812C7 31.0655 13.7157 37.7812 22 37.7812ZM15 21.6587C16.1046 21.6587 17 20.7633 17 19.6587C17 18.5541 16.1046 17.6587 15 17.6587C13.8954 17.6587 13 18.5541 13 19.6587C13 20.7633 13.8954 21.6587 15 21.6587ZM31 19.5005C31 20.6051 30.1046 21.5005 29 21.5005C27.8954 21.5005 27 20.6051 27 19.5005C27 18.3959 27.8954 17.5005 29 17.5005C30.1046 17.5005 31 18.3959 31 19.5005ZM15.0894 24.495C15.5046 26.9506 17.4211 30.5005 22 30.5005C26.5789 30.5005 28.4954 26.9506 28.9106 24.495C29.0026 23.9504 28.5523 23.5005 28 23.5005H16C15.4477 23.5005 14.9974 23.9504 15.0894 24.495Z" fill="white"/>
</svg>
