<svg width="44" height="45" viewBox="0 0 44 45" fill="none" xmlns="http://www.w3.org/2000/svg">
<rect y="0.5" width="44" height="44" rx="8" fill="#FDC055"/>
<path fill-rule="evenodd" clip-rule="evenodd" d="M22 37.7812C30.2843 37.7812 37 31.0655 37 22.7812C37 14.497 30.2843 7.78125 22 7.78125C13.7157 7.78125 7 14.497 7 22.7812C7 31.0655 13.7157 37.7812 22 37.7812ZM15 21.6587C16.1046 21.6587 17 20.7633 17 19.6587C17 18.5541 16.1046 17.6587 15 17.6587C13.8954 17.6587 13 18.5541 13 19.6587C13 20.7633 13.8954 21.6587 15 21.6587ZM31 19.5005C31 20.6051 30.1046 21.5005 29 21.5005C27.8954 21.5005 27 20.6051 27 19.5005C27 18.3959 27.8954 17.5005 29 17.5005C30.1046 17.5005 31 18.3959 31 19.5005ZM28.5 26.5005C28.5 25.6721 27.8284 25.0005 27 25.0005L17 25.0005C16.1716 25.0005 15.5 25.6721 15.5 26.5005C15.5 27.3289 16.1716 28.0005 17 28.0005L27 28.0005C27.8284 28.0005 28.5 27.3289 28.5 26.5005Z" fill="white"/>
</svg>
