<svg width="44" height="44" viewBox="0 0 44 44" fill="none" xmlns="http://www.w3.org/2000/svg">
<path d="M0 4C0 1.79086 1.79086 0 4 0H40C42.2091 0 44 1.79086 44 4V40C44 42.2091 42.2091 44 40 44H4C1.79086 44 0 42.2091 0 40V4Z" fill="#FDC055" fill-opacity="0.2"/>
<path fill-rule="evenodd" clip-rule="evenodd" d="M14.125 13H29.875C31.047 13 32 13.897 32 15V29C32 30.103 31.047 31 29.875 31H14.125C12.953 31 12 30.103 12 29V15C12 13.897 12.953 13 14.125 13ZM17 17C16.4477 17 16 17.4477 16 18V22C16 22.5523 16.4477 23 17 23H21C21.5523 23 22 22.5523 22 22V18C22 17.4477 21.5523 17 21 17H17ZM17 25H23H24H27C27.5523 25 28 25.4477 28 26C28 26.5523 27.5523 27 27 27H17C16.4477 27 16 26.5523 16 26C16 25.4477 16.4477 25 17 25ZM25 21C24.4477 21 24 21.4477 24 22C24 22.5523 24.4477 23 25 23H27C27.5523 23 28 22.5523 28 22C28 21.4477 27.5523 21 27 21H25ZM25 17C24.4477 17 24 17.4477 24 18C24 18.5523 24.4477 19 25 19H27C27.5523 19 28 18.5523 28 18C28 17.4477 27.5523 17 27 17H25Z" fill="#FDC055"/>
</svg>
