<svg width="44" height="44" viewBox="0 0 44 44" fill="none" xmlns="http://www.w3.org/2000/svg">
<rect width="44" height="44" rx="4" fill="#E8F1EE"/>
<path fill-rule="evenodd" clip-rule="evenodd" d="M14 14C12.8954 14 12 14.8954 12 16V28C12 29.1046 12.8954 30 14 30H30C31.1046 30 32 29.1046 32 28V16C32 14.8954 31.1046 14 30 14H14ZM26.7071 18.7071C27.0976 18.3166 27.0976 17.6834 26.7071 17.2929C26.3166 16.9024 25.6834 16.9024 25.2929 17.2929L17.2929 25.2929C16.9024 25.6834 16.9024 26.3166 17.2929 26.7071C17.6834 27.0976 18.3166 27.0976 18.7071 26.7071L26.7071 18.7071ZM27 25.5C27 26.3284 26.3284 27 25.5 27C24.6716 27 24 26.3284 24 25.5C24 24.6716 24.6716 24 25.5 24C26.3284 24 27 24.6716 27 25.5ZM18.5 20C19.3284 20 20 19.3284 20 18.5C20 17.6716 19.3284 17 18.5 17C17.6716 17 17 17.6716 17 18.5C17 19.3284 17.6716 20 18.5 20Z" fill="#286F6C"/>
</svg>
