<svg width="45" height="44" viewBox="0 0 45 44" fill="none" xmlns="http://www.w3.org/2000/svg">
<rect x="0.333252" width="44" height="44" rx="22" fill="#F2F2F8"/>
<path d="M32.3307 31.6941L31.3104 23.2204C31.2951 23.0921 31.2089 23 31.1099 23H24.4703C24.3713 23 24.285 23.0921 24.2698 23.2204L23.2495 31.6941C23.2469 31.7072 23.2469 31.7237 23.2469 31.7368C23.2469 31.8816 23.3383 32 23.45 32H32.1302C32.1403 32 32.153 32 32.1632 31.9967C32.2723 31.9737 32.3484 31.8388 32.3307 31.6941ZM20.3967 23.2204C20.3815 23.0921 20.2952 23 20.1962 23H13.5566C13.4576 23 13.3713 23.0921 13.3561 23.2204L12.3358 31.6941C12.3333 31.7072 12.3333 31.7237 12.3333 31.7368C12.3333 31.8816 12.4246 32 12.5363 32H21.2165C21.2266 32 21.2393 32 21.2495 31.9967C21.3612 31.9737 21.4348 31.8388 21.417 31.6941L20.3967 23.2204ZM18.0185 21H26.6987C26.7089 21 26.7215 21 26.7317 20.9967C26.8434 20.9737 26.917 20.8388 26.8992 20.6941L25.8789 12.2204C25.8637 12.0921 25.7774 12 25.6784 12H19.0388C18.9398 12 18.8535 12.0921 18.8383 12.2204L17.818 20.6941C17.8155 20.7072 17.8155 20.7237 17.8155 20.7368C17.8155 20.8816 17.9068 21 18.0185 21Z" fill="#5FB6AD"/>
</svg>
