<svg width="45" height="44" viewBox="0 0 45 44" fill="none" xmlns="http://www.w3.org/2000/svg">
<rect x="0.333252" width="44" height="44" rx="22" fill="#F2F2F8"/>
<g clip-path="url(#clip0_1367_86316)">
<path fill-rule="evenodd" clip-rule="evenodd" d="M14.2083 15C13.1037 15 12.2083 15.8954 12.2083 17V29C12.2083 30.1046 13.1037 31 14.2083 31H30.2083C31.3128 31 32.2083 30.1046 32.2083 29V17C32.2083 15.8954 31.3128 15 30.2083 15H14.2083ZM26.9154 19.7071C27.3059 19.3166 27.3059 18.6834 26.9154 18.2929C26.5248 17.9024 25.8917 17.9024 25.5011 18.2929L17.5011 26.2929C17.1106 26.6834 17.1106 27.3166 17.5011 27.7071C17.8917 28.0976 18.5248 28.0976 18.9154 27.7071L26.9154 19.7071ZM27.2083 26.5C27.2083 27.3284 26.5367 28 25.7083 28C24.8798 28 24.2083 27.3284 24.2083 26.5C24.2083 25.6716 24.8798 25 25.7083 25C26.5367 25 27.2083 25.6716 27.2083 26.5ZM18.7083 21C19.5367 21 20.2083 20.3284 20.2083 19.5C20.2083 18.6716 19.5367 18 18.7083 18C17.8798 18 17.2083 18.6716 17.2083 19.5C17.2083 20.3284 17.8798 21 18.7083 21Z" fill="#5FB6AD"/>
</g>
<defs>
<clipPath id="clip0_1367_86316">
<rect width="24" height="24" fill="white" transform="translate(10.3333 10)"/>
</clipPath>
</defs>
</svg>
