<svg width="44" height="44" viewBox="0 0 44 44" fill="none" xmlns="http://www.w3.org/2000/svg">
<rect width="44" height="44" rx="4" fill="#FDE3E1"/>
<path d="M31.9974 30.7247L30.9771 23.0984C30.9619 22.9829 30.8756 22.9 30.7766 22.9H24.137C24.038 22.9 23.9518 22.9829 23.9365 23.0984L22.9162 30.7247C22.9137 30.7365 22.9137 30.7513 22.9137 30.7632C22.9137 30.8934 23.0051 31 23.1167 31H31.7969C31.8071 31 31.8198 31 31.8299 30.997C31.939 30.9763 32.0152 30.8549 31.9974 30.7247ZM20.0634 23.0984C20.0482 22.9829 19.9619 22.9 19.8629 22.9H13.2233C13.1244 22.9 13.0381 22.9829 13.0228 23.0984L12.0025 30.7247C12 30.7365 12 30.7513 12 30.7632C12 30.8934 12.0914 31 12.203 31H20.8832C20.8934 31 20.9061 31 20.9162 30.997C21.0279 30.9763 21.1015 30.8549 21.0837 30.7247L20.0634 23.0984ZM17.6853 21.1H26.3655C26.3756 21.1 26.3883 21.1 26.3984 21.097C26.5101 21.0763 26.5837 20.9549 26.566 20.8247L25.5457 13.1984C25.5304 13.0829 25.4441 13 25.3452 13H18.7056C18.6066 13 18.5203 13.0829 18.5051 13.1984L17.4848 20.8247C17.4822 20.8365 17.4822 20.8513 17.4822 20.8632C17.4822 20.9934 17.5736 21.1 17.6853 21.1Z" fill="#F5746B"/>
</svg>
