<svg width="45" height="44" viewBox="0 0 45 44" fill="none" xmlns="http://www.w3.org/2000/svg">
<rect x="0.333252" width="44" height="44" rx="22" fill="#F2F2F8"/>
<path d="M30.3333 23C30.8833 23 31.3333 22.55 31.3333 22C31.3333 21.45 30.8833 21 30.3333 21H29.3333V15H30.3333C30.8833 15 31.3333 14.55 31.3333 14C31.3333 13.45 30.8833 13 30.3333 13H14.3333C13.7833 13 13.3333 13.45 13.3333 14C13.3333 14.55 13.7833 15 14.3333 15H15.3333V21H14.3333C13.7833 21 13.3333 21.45 13.3333 22C13.3333 22.55 13.7833 23 14.3333 23H15.3333V29H14.3333C13.7833 29 13.3333 29.45 13.3333 30C13.3333 30.55 13.7833 31 14.3333 31H30.3333C30.8833 31 31.3333 30.55 31.3333 30C31.3333 29.45 30.8833 29 30.3333 29H29.3333V23H30.3333ZM22.3333 26C20.6733 26 19.3333 24.68 19.3333 23.05C19.3333 21.75 19.8533 21.38 22.3333 18.5C24.8033 21.36 25.3333 21.74 25.3333 23.05C25.3333 24.68 23.9933 26 22.3333 26Z" fill="#5FB6AD"/>
</svg>
