<svg width="44" height="44" viewBox="0 0 44 44" fill="none" xmlns="http://www.w3.org/2000/svg">
<rect width="44" height="44" rx="4" fill="#CDDDEA"/>
<path d="M30 23C30.55 23 31 22.55 31 22C31 21.45 30.55 21 30 21H29V15H30C30.55 15 31 14.55 31 14C31 13.45 30.55 13 30 13H14C13.45 13 13 13.45 13 14C13 14.55 13.45 15 14 15H15V21H14C13.45 21 13 21.45 13 22C13 22.55 13.45 23 14 23H15V29H14C13.45 29 13 29.45 13 30C13 30.55 13.45 31 14 31H30C30.55 31 31 30.55 31 30C31 29.45 30.55 29 30 29H29V23H30ZM22 26C20.34 26 19 24.68 19 23.05C19 21.75 19.52 21.38 22 18.5C24.47 21.36 25 21.74 25 23.05C25 24.68 23.66 26 22 26Z" fill="#065398"/>
</svg>
