<svg width="24" height="24" viewBox="0 0 24 24" fill="none" xmlns="http://www.w3.org/2000/svg">
<path d="M7.79852 5.19079C9.01957 4.43576 10.4589 4 12 4C12.3387 4 12.6724 4.02104 13 4.06189M7.79852 5.19079C5.51886 6.6004 4 9.12283 4 12C4 14.1304 4.83275 16.0663 6.1905 17.5M7.79852 5.19079L10 7C10 7 9.61747 8.38253 9 9C8.38253 9.61747 7.52723 9.30389 7 10C5.8878 11.4684 10.1099 12.2618 9.5 14C9.08605 15.1798 7 16 7 16L6.1905 17.5M6.1905 17.5C7.20846 18.5749 8.52153 19.3674 10 19.748M13 4.06189C16.9463 4.55399 20 7.92038 20 12C20 12.5127 19.9518 13.0141 19.8596 13.5M13 4.06189L12.5 6.5H14C14.8333 6.66667 16.3 7.2 15.5 8C14.7 8.8 14.8333 9.33333 15 9.5L17.5 10.5C17.8333 10.1667 18.5 9.6 18.5 10C18.5 10.4 18.5 11.8333 18.5 12.5L19.5 13L19.8596 13.5M19.8596 13.5C19.6117 14.8071 19.0458 16.0016 18.2454 17M18.2454 17C16.7792 18.8289 14.5264 20 12 20C11.3094 20 10.6392 19.9125 10 19.748M18.2454 17L16.5 15.5L15.5 16.5H14.5C14.3333 16.1667 13.8 12.6 13 13C12.2 13.4 11 16.5 11.5 17.5L12 19L10 19.748" stroke="#111111" stroke-linecap="round" stroke-linejoin="round"/>
</svg>
