<svg width="24" height="24" viewBox="0 0 24 24" fill="none" xmlns="http://www.w3.org/2000/svg">
<path fill-rule="evenodd" clip-rule="evenodd" d="M2 7C2 5.89543 2.89543 5 4 5H20C21.1046 5 22 5.89543 22 7V19C22 20.1046 21.1046 21 20 21H4C2.89543 21 2 20.1046 2 19V7ZM5 12C5 11.4477 5.44772 11 6 11H8C8.55228 11 9 11.4477 9 12C9 12.5523 8.55228 13 8 13H6C5.44772 13 5 12.5523 5 12ZM11 11C10.4477 11 10 11.4477 10 12C10 12.5523 10.4477 13 11 13H13C13.5523 13 14 12.5523 14 12C14 11.4477 13.5523 11 13 11H11ZM15 12C15 11.4477 15.4477 11 16 11H18C18.5523 11 19 11.4477 19 12C19 12.5523 18.5523 13 18 13H16C15.4477 13 15 12.5523 15 12ZM6 15C5.44772 15 5 15.4477 5 16C5 16.5523 5.44772 17 6 17H8C8.55228 17 9 16.5523 9 16C9 15.4477 8.55228 15 8 15H6ZM10 16C10 15.4477 10.4477 15 11 15H13C13.5523 15 14 15.4477 14 16C14 16.5523 13.5523 17 13 17H11C10.4477 17 10 16.5523 10 16ZM16 15C15.4477 15 15 15.4477 15 16C15 16.5523 15.4477 17 16 17H18C18.5523 17 19 16.5523 19 16C19 15.4477 18.5523 15 18 15H16Z" fill="#999999"/>
<rect x="4.5" y="2.5" width="3" height="5" rx="1.5" fill="#999999" stroke="#F5F6F8"/>
<rect x="10.5" y="2.5" width="3" height="5" rx="1.5" fill="#999999" stroke="#F5F6F8"/>
<rect x="16.5" y="2.5" width="3" height="5" rx="1.5" fill="#999999" stroke="#F5F6F8"/>
</svg>
