<svg width="18" height="18" viewBox="0 0 18 18" fill="none" xmlns="http://www.w3.org/2000/svg">
<rect x="0.5" y="0.5" width="17" height="17" rx="8.5" fill="#767676" stroke="#767676"/>
<path d="M9.36914 10.4863H8.0625C8.06641 10.123 8.09766 9.81836 8.15625 9.57227C8.21484 9.32227 8.3125 9.0957 8.44922 8.89258C8.58984 8.68945 8.77539 8.47461 9.00586 8.24805C9.18555 8.07617 9.34766 7.91406 9.49219 7.76172C9.63672 7.60547 9.75195 7.44141 9.83789 7.26953C9.92383 7.09375 9.9668 6.89258 9.9668 6.66602C9.9668 6.41992 9.92578 6.21094 9.84375 6.03906C9.76172 5.86719 9.64062 5.73633 9.48047 5.64648C9.32422 5.55664 9.12891 5.51172 8.89453 5.51172C8.69922 5.51172 8.51562 5.55078 8.34375 5.62891C8.17188 5.70312 8.0332 5.82031 7.92773 5.98047C7.82227 6.13672 7.76562 6.34375 7.75781 6.60156H6.3457C6.35352 6.10938 6.4707 5.69531 6.69727 5.35938C6.92383 5.02344 7.22852 4.77148 7.61133 4.60352C7.99414 4.43555 8.42188 4.35156 8.89453 4.35156C9.41797 4.35156 9.86523 4.44141 10.2363 4.62109C10.6074 4.79688 10.8906 5.05469 11.0859 5.39453C11.2852 5.73047 11.3848 6.13672 11.3848 6.61328C11.3848 6.95703 11.3164 7.26953 11.1797 7.55078C11.043 7.82812 10.8652 8.08789 10.6465 8.33008C10.4277 8.56836 10.1914 8.80664 9.9375 9.04492C9.71875 9.24414 9.57031 9.46094 9.49219 9.69531C9.41406 9.92578 9.37305 10.1895 9.36914 10.4863ZM7.94531 12.3145C7.94531 12.1035 8.01758 11.9258 8.16211 11.7812C8.30664 11.6328 8.50391 11.5586 8.75391 11.5586C9.00391 11.5586 9.20117 11.6328 9.3457 11.7812C9.49023 11.9258 9.5625 12.1035 9.5625 12.3145C9.5625 12.5254 9.49023 12.7051 9.3457 12.8535C9.20117 12.998 9.00391 13.0703 8.75391 13.0703C8.50391 13.0703 8.30664 12.998 8.16211 12.8535C8.01758 12.7051 7.94531 12.5254 7.94531 12.3145Z" fill="white"/>
</svg>
